<?xml version="1.0" encoding="UTF-8" standalone="no"?>
<!-- Created with Inkscape (http://www.inkscape.org/) -->

<svg
   xmlns:dc="http://purl.org/dc/elements/1.1/"
   xmlns:cc="http://creativecommons.org/ns#"
   xmlns:rdf="http://www.w3.org/1999/02/22-rdf-syntax-ns#"
   xmlns:svg="http://www.w3.org/2000/svg"
   xmlns="http://www.w3.org/2000/svg"
   xmlns:sodipodi="http://sodipodi.sourceforge.net/DTD/sodipodi-0.dtd"
   xmlns:inkscape="http://www.inkscape.org/namespaces/inkscape"
   width="90"
   height="90"
   viewBox="0 0 23.812499 23.812501"
   version="1.1"
   id="svg8"
   inkscape:version="0.92.3 (unknown)"
   sodipodi:docname="icon_github.svg">
  <defs
     id="defs2" />
  <sodipodi:namedview
     id="base"
     pagecolor="#ffffff"
     bordercolor="#666666"
     borderopacity="1.0"
     inkscape:pageopacity="0.0"
     inkscape:pageshadow="2"
     inkscape:zoom="5.8222222"
     inkscape:cx="45"
     inkscape:cy="45"
     inkscape:document-units="mm"
     inkscape:current-layer="layer1"
     showgrid="false"
     units="px"
     inkscape:window-width="1366"
     inkscape:window-height="715"
     inkscape:window-x="0"
     inkscape:window-y="0"
     inkscape:window-maximized="1"
     inkscape:pagecheckerboard="true" />
  <metadata
     id="metadata5">
    <rdf:RDF>
      <cc:Work
         rdf:about="">
        <dc:format>image/svg+xml</dc:format>
        <dc:type
           rdf:resource="http://purl.org/dc/dcmitype/StillImage" />
        <dc:title></dc:title>
      </cc:Work>
    </rdf:RDF>
  </metadata>
  <g
     inkscape:label="Layer 1"
     inkscape:groupmode="layer"
     id="layer1"
     transform="translate(0,-273.18748)">
    <path
       style="fill:#000000;stroke-width:0.26458332"
       d=""
       id="path3724"
       inkscape:connector-curvature="0" />
    <path
       inkscape:connector-curvature="0"
       id="path4685"
       d="M 215.84006,302.80033 V 235.067 h 67.73333 67.73333 v 67.73333 67.73333 h -67.73333 -67.73333 z"
       style="fill:#fefefe;stroke-width:0.26458332" />
    <path
       style="fill:#000000;stroke-width:0.26458332"
       d=""
       id="path4667"
       inkscape:connector-curvature="0" />
    <path
       style="fill:#7289da;stroke-width:0.05754703;fill-opacity:1"
       d="m 7.7343677,296.82989 c -2.3391154,-0.89927 -4.3769625,-2.56636 -5.7743311,-4.72379 -0.4508887,-0.69613 -1.12511927,-2.1275 -1.37355333,-2.916 -0.78385363,-2.48787 -0.78193943,-5.10182 0.005539,-7.57675 1.47203333,-4.6263 5.45085813,-7.89111 10.20038773,-8.36988 3.501483,-0.35297 7.065548,0.97759 9.577765,3.57564 2.462999,2.54714 3.731013,6.18522 3.386644,9.71668 -0.08173,0.83813 -0.300103,1.92197 -0.537807,2.66929 -0.247829,0.77914 -0.92574,2.21364 -1.370963,2.90102 -1.193624,1.84286 -2.770096,3.26554 -4.68128,4.22459 -1.356621,0.68077 -1.856349,0.79715 -2.144521,0.49941 -0.11571,-0.11956 -0.119844,-0.18517 -0.148701,-2.35992 -0.02851,-2.14894 -0.03483,-2.25191 -0.16069,-2.61734 -0.07206,-0.20922 -0.231177,-0.53241 -0.353598,-0.71821 -0.148316,-0.2251 -0.198549,-0.345 -0.150547,-0.35935 0.03962,-0.0118 0.339424,-0.0662 0.666223,-0.12079 1.151497,-0.19234 2.257068,-0.67238 2.952753,-1.28208 0.774359,-0.67865 1.337219,-1.76913 1.544007,-2.99136 0.32682,-1.93167 0.04269,-3.45481 -0.861979,-4.62092 l -0.219603,-0.28306 0.103243,-0.38505 c 0.141482,-0.52766 0.138263,-1.46206 -0.0072,-2.08947 -0.172063,-0.74217 -0.200023,-0.78528 -0.509231,-0.78528 -0.576715,0 -1.490014,0.3438 -2.399352,0.90321 l -0.601041,0.36975 -0.439363,-0.10466 c -0.892298,-0.21257 -1.34397,-0.25869 -2.533137,-0.25869 -1.189167,0 -1.64084,0.0461 -2.533137,0.25869 l -0.4393627,0.10466 -0.6010416,-0.36975 c -0.9093401,-0.55941 -1.822639,-0.90321 -2.399352,-0.90321 -0.3092074,0 -0.3371677,0.0431 -0.5092302,0.78528 -0.1454605,0.62741 -0.1486772,1.56181 -0.00719,2.08947 l 0.1032431,0.38505 -0.2196033,0.28306 c -0.7270948,0.93721 -1.0632273,2.13028 -0.9837567,3.49176 0.1270648,2.17685 0.7976594,3.57278 2.1572786,4.49068 0.6475557,0.43717 1.593918,0.78672 2.5461405,0.94046 0.7334833,0.11842 0.6883615,0.077 0.4500546,0.41276 -0.2076754,0.29258 -0.4749093,0.96757 -0.477155,1.20522 -0.00291,0.30832 -1.3560923,0.53993 -2.0132063,0.34458 -0.6080246,-0.18075 -1.0394504,-0.5425 -1.4623382,-1.22617 -0.2695823,-0.43582 -0.6454191,-0.80039 -1.0616296,-1.02981 -0.6913964,-0.3811 -1.5487641,-0.25527 -1.2201002,0.17907 0.037916,0.0501 0.2097521,0.19808 0.3818617,0.32883 0.5364633,0.40755 0.8659656,0.83523 1.2143982,1.57627 0.370338,0.78762 0.6722886,1.14284 1.2101314,1.42362 0.561162,0.29295 0.9962985,0.37174 1.8462147,0.33428 0.4046077,-0.0178 0.8056778,-0.0499 0.8912695,-0.0713 l 0.1556176,-0.0389 v 1.23962 c 0,0.7383 -0.023565,1.28516 -0.058267,1.35222 -0.076455,0.14774 -0.3483471,0.29009 -0.5472492,0.28652 -0.087136,-0.002 -0.3541068,-0.0781 -0.5932671,-0.17002 z m -0.1860138,-3.59332 c -0.149723,-0.11323 -0.073206,-0.27182 0.1311456,-0.27182 0.090537,0 0.1986005,0.0424 0.2401399,0.0941 0.064172,0.08 0.059334,0.10636 -0.03218,0.17556 -0.1348949,0.10201 -0.2064327,0.10246 -0.3391054,0.002 z m 0.8755003,-0.0955 c -0.1411209,-0.093 0.00644,-0.26412 0.2278055,-0.26412 0.2152467,0 0.2705426,0.0908 0.1385052,0.2273 -0.1028068,0.10631 -0.2399816,0.1201 -0.3663107,0.0368 z m -1.8668219,-0.0878 c -0.099697,-0.12423 -0.028172,-0.26409 0.1350553,-0.26409 0.168801,0 0.3241447,0.14689 0.2803019,0.26504 -0.041512,0.11187 -0.3253403,0.11122 -0.4153572,-8.8e-4 z m -0.7815202,-0.45136 c -0.037347,-0.0386 -0.067906,-0.1308 -0.067906,-0.20483 0,-0.10144 0.032067,-0.1346 0.1301532,-0.1346 0.165843,0 0.2659678,0.10355 0.2659678,0.27505 0,0.10144 -0.032069,0.1346 -0.1301554,0.1346 -0.071583,0 -0.1607099,-0.0316 -0.1980596,-0.0702 z m -0.5881982,-0.77993 c -0.049727,-0.11287 -0.049072,-0.16453 0.00278,-0.21814 0.098377,-0.10174 0.2585612,0.0186 0.2807788,0.211 0.01433,0.12411 -0.00567,0.15503 -0.1002424,0.15503 -0.071448,0 -0.1439034,-0.0584 -0.1833061,-0.14789 z m -0.4718145,-0.6773 c -0.057548,-0.18751 0.059954,-0.27136 0.19853,-0.14167 0.155333,0.14538 0.1449043,0.2646 -0.023144,0.2646 -0.090156,0 -0.1506769,-0.0424 -0.175386,-0.12293 z M 4.2049645,290.6773 c -0.020917,-0.035 -0.00898,-0.0937 0.026512,-0.13036 0.071076,-0.0735 0.2350068,10e-4 0.274972,0.125 0.02827,0.0877 -0.2493195,0.0926 -0.301484,0.005 z"
       id="path4757"
       inkscape:connector-curvature="0" />
  </g>
</svg>
