<?xml version="1.0" encoding="UTF-8" standalone="no"?>
<!-- Created with Inkscape (http://www.inkscape.org/) -->

<svg
   xmlns:dc="http://purl.org/dc/elements/1.1/"
   xmlns:cc="http://creativecommons.org/ns#"
   xmlns:rdf="http://www.w3.org/1999/02/22-rdf-syntax-ns#"
   xmlns:svg="http://www.w3.org/2000/svg"
   xmlns="http://www.w3.org/2000/svg"
   xmlns:sodipodi="http://sodipodi.sourceforge.net/DTD/sodipodi-0.dtd"
   xmlns:inkscape="http://www.inkscape.org/namespaces/inkscape"
   width="90"
   height="90"
   viewBox="0 0 23.812499 23.812501"
   version="1.1"
   id="svg8"
   inkscape:version="0.92.3 (unknown)"
   sodipodi:docname="icon_twitter.svg">
  <defs
     id="defs2" />
  <sodipodi:namedview
     id="base"
     pagecolor="#ffffff"
     bordercolor="#666666"
     borderopacity="1.0"
     inkscape:pageopacity="0.0"
     inkscape:pageshadow="2"
     inkscape:zoom="5.8222222"
     inkscape:cx="45"
     inkscape:cy="32.405282"
     inkscape:document-units="mm"
     inkscape:current-layer="layer1"
     showgrid="false"
     units="px"
     inkscape:window-width="1366"
     inkscape:window-height="715"
     inkscape:window-x="0"
     inkscape:window-y="0"
     inkscape:window-maximized="1"
     inkscape:pagecheckerboard="true" />
  <metadata
     id="metadata5">
    <rdf:RDF>
      <cc:Work
         rdf:about="">
        <dc:format>image/svg+xml</dc:format>
        <dc:type
           rdf:resource="http://purl.org/dc/dcmitype/StillImage" />
        <dc:title></dc:title>
      </cc:Work>
    </rdf:RDF>
  </metadata>
  <g
     inkscape:label="Layer 1"
     inkscape:groupmode="layer"
     id="layer1"
     transform="translate(0,-273.18748)">
    <path
       style="fill:#000000;stroke-width:0.26458332"
       d=""
       id="path3724"
       inkscape:connector-curvature="0" />
    <path
       inkscape:connector-curvature="0"
       id="path4685"
       d="M 215.84006,302.80033 V 235.067 h 67.73333 67.73333 v 67.73333 67.73333 h -67.73333 -67.73333 z"
       style="fill:#fefefe;stroke-width:0.26458332" />
    <path
       inkscape:connector-curvature="0"
       id="path4683"
       d="m 10.501927,296.97194 c -0.7316472,-0.066 -1.1134513,-0.13244 -1.7249973,-0.30014 -4.037357,-1.10712 -7.212286,-4.23294 -8.37420595,-8.24468 -0.536965,-1.85396 -0.536965,-4.79649 0,-6.65045 1.14153895,-3.94136 4.25606495,-7.05759 8.19528095,-8.19975 1.032364,-0.29933 2.2200853,-0.42281 3.6724603,-0.3818 1.270167,0.0359 1.856039,0.0965 2.513186,0.25999 4.019485,1.00015 7.224862,3.97229 8.518047,7.89823 0.410331,1.24571 0.510802,1.98303 0.510802,3.74856 0,1.27285 -0.04942,1.9386 -0.192634,2.59498 -0.880741,4.03657 -3.876443,7.39485 -7.806517,8.75136 -0.64035,0.22103 -1.589755,0.44168 -2.10013,0.4881 -0.711375,0.0647 -2.650516,0.0862 -3.211292,0.0356 z m 0.353823,-6.41739 c 1.865147,-0.37466 3.410817,-1.42635 4.516114,-3.0728 0.886022,-1.31982 1.432233,-3.07635 1.435389,-4.61599 l 8.79e-4,-0.44334 0.421146,-0.41813 c 0.422238,-0.4192 0.819686,-0.89179 0.781848,-0.92965 -0.01112,-0.0111 -0.179085,0.0303 -0.373272,0.092 -0.471438,0.14979 -0.829836,0.19786 -0.829391,0.11124 1.76e-4,-0.0353 0.144355,-0.20596 0.320386,-0.37923 0.203317,-0.20011 0.382363,-0.43365 0.490881,-0.64028 0.09396,-0.17889 0.158617,-0.32526 0.143692,-0.32526 -0.01492,0 -0.152772,0.0635 -0.30633,0.14102 -0.297603,0.15031 -1.053946,0.41777 -1.181398,0.41777 -0.04212,0 -0.175159,-0.0914 -0.295649,-0.20307 -0.501232,-0.46462 -0.956931,-0.64907 -1.615287,-0.65379 -0.720689,-0.005 -1.244098,0.21342 -1.767087,0.73795 -0.539034,0.54062 -0.784198,1.18899 -0.790268,2.08997 -0.0029,0.43636 -0.01808,0.5587 -0.07285,0.58881 -0.176048,0.0968 -1.534305,-0.1791 -2.1843783,-0.44367 -1.012883,-0.41223 -1.697852,-0.87342 -2.535095,-1.70688 -0.356318,-0.35471 -0.662447,-0.62858 -0.6802849,-0.60861 -0.197716,0.22136 -0.2988841,1.39404 -0.165965,1.92375 0.119853,0.47765 0.375202,0.94789 0.704211,1.29685 0.3461279,0.36711 0.344796,0.45016 -0.0064,0.39923 -0.197058,-0.0286 -0.40593,-0.0945 -0.727899,-0.2298 -0.187689,-0.0789 -0.04866,0.65056 0.229236,1.20269 0.273331,0.54306 0.815402,1.04846 1.36365,1.27141 0.174515,0.071 0.257098,0.13082 0.257098,0.18633 0,0.10893 -0.150144,0.14556 -0.619799,0.15119 -0.441731,0.005 -0.43882,-7e-4 -0.208188,0.43001 0.374092,0.69865 1.039462,1.18016 1.801935,1.30402 0.151713,0.0246 0.293137,0.0555 0.314275,0.0686 0.07793,0.0482 -0.06231,0.20212 -0.368622,0.40462 -0.861093,0.56928 -1.793602,0.87077 -2.693281,0.87077 -0.214749,0 -0.390453,0.0195 -0.390453,0.0433 0,0.0644 0.614359,0.388 1.107619,0.58339 0.4978,0.1972 1.157562,0.37323 1.647749,0.43962 0.504433,0.0683 1.7454722,0.0225 2.2757732,-0.084 z"
       style="fill:#7289da;fill-opacity:1;stroke-width:0.04655318" />
    <path
       style="fill:#000000;stroke-width:0.26458332"
       d=""
       id="path4667"
       inkscape:connector-curvature="0" />
  </g>
</svg>
