<?xml version="1.0" encoding="UTF-8" standalone="no"?>
<!-- Created with Inkscape (http://www.inkscape.org/) -->

<svg
   xmlns:dc="http://purl.org/dc/elements/1.1/"
   xmlns:cc="http://creativecommons.org/ns#"
   xmlns:rdf="http://www.w3.org/1999/02/22-rdf-syntax-ns#"
   xmlns:svg="http://www.w3.org/2000/svg"
   xmlns="http://www.w3.org/2000/svg"
   xmlns:sodipodi="http://sodipodi.sourceforge.net/DTD/sodipodi-0.dtd"
   xmlns:inkscape="http://www.inkscape.org/namespaces/inkscape"
   width="90"
   height="90"
   viewBox="0 0 23.812499 23.812501"
   version="1.1"
   id="svg8"
   inkscape:version="0.92.3 (unknown)"
   sodipodi:docname="icon_youtube.svg">
  <defs
     id="defs2" />
  <sodipodi:namedview
     id="base"
     pagecolor="#ffffff"
     bordercolor="#666666"
     borderopacity="1.0"
     inkscape:pageopacity="0.0"
     inkscape:pageshadow="2"
     inkscape:zoom="5.8222222"
     inkscape:cx="45"
     inkscape:cy="45"
     inkscape:document-units="mm"
     inkscape:current-layer="layer1"
     showgrid="false"
     units="px"
     inkscape:window-width="1366"
     inkscape:window-height="715"
     inkscape:window-x="0"
     inkscape:window-y="0"
     inkscape:window-maximized="1"
     inkscape:pagecheckerboard="true" />
  <metadata
     id="metadata5">
    <rdf:RDF>
      <cc:Work
         rdf:about="">
        <dc:format>image/svg+xml</dc:format>
        <dc:type
           rdf:resource="http://purl.org/dc/dcmitype/StillImage" />
        <dc:title></dc:title>
      </cc:Work>
    </rdf:RDF>
  </metadata>
  <g
     inkscape:label="Layer 1"
     inkscape:groupmode="layer"
     id="layer1"
     transform="translate(0,-273.18748)">
    <path
       style="fill:#000000;stroke-width:0.26458332"
       d=""
       id="path3724"
       inkscape:connector-curvature="0" />
    <path
       inkscape:connector-curvature="0"
       id="path4685"
       d="M 215.84006,302.80033 V 235.067 h 67.73333 67.73333 v 67.73333 67.73333 h -67.73333 -67.73333 z"
       style="fill:#fefefe;stroke-width:0.26458332" />
    <path
       style="fill:#000000;stroke-width:0.26458332"
       d=""
       id="path4667"
       inkscape:connector-curvature="0" />
    <path
       style="fill:#7289da;stroke-width:0.0238282;fill-opacity:1"
       d="m 11.197877,296.98008 c -1.6460988,-0.0944 -3.3867725,-0.57726 -4.8199838,-1.33707 -2.5573118,-1.35575 -4.5217552,-3.54953 -5.56399664,-6.21355 -1.40771548,-3.5982 -0.97001639,-7.70502 1.16307874,-10.9129 0.8430845,-1.26788 1.9592414,-2.39895 3.2173508,-3.26034 0.5382479,-0.36852 1.1882755,-0.73654 1.7554661,-0.99385 3.8130538,-1.72988 8.2410838,-1.35272 11.6683818,0.99385 1.98096,1.35631 3.510724,3.27709 4.38043,5.50011 1.407714,3.59819 0.970016,7.70502 -1.16308,10.91289 -0.843083,1.26788 -1.959241,2.39895 -3.21735,3.26034 -2.163928,1.48158 -4.772293,2.20238 -7.420297,2.05052 z m 6.022268,-6.9182 c 0.255642,-0.0389 0.418773,-0.0904 0.643493,-0.20305 0.572393,-0.28696 0.998371,-0.84363 1.132142,-1.47951 0.05238,-0.24899 0.05314,-6.32121 8.11e-4,-6.56708 -0.117944,-0.55425 -0.432978,-1.03233 -0.885342,-1.34355 -0.166834,-0.11477 -0.481415,-0.25573 -0.700482,-0.31386 l -0.202548,-0.0537 H 11.90625 6.6042697 l -0.2025477,0.0537 c -0.2190671,0.0581 -0.5336484,0.19909 -0.7004817,0.31386 -0.4523641,0.31122 -0.7673994,0.7893 -0.8853421,1.34355 -0.05232,0.24587 -0.05156,6.31809 8.106e-4,6.56708 0.1838237,0.8738 0.8890625,1.547 1.7629206,1.68283 0.1482831,0.0231 1.3435529,0.0303 5.3027806,0.032 4.347016,0.002 5.145198,-0.003 5.337723,-0.0322 z m -6.719812,-5.2318 c 0,-1.45426 0.006,-2.64412 0.01335,-2.64412 0.01106,0 3.222868,2.10844 3.827497,2.51262 l 0.183078,0.12238 -1.171987,0.77256 c -0.644593,0.42491 -1.549976,1.02189 -2.011963,1.32662 l -0.839976,0.55405 z"
       id="path4725"
       inkscape:connector-curvature="0" />
  </g>
</svg>
